<?xml version="1.0" encoding="utf-8"?>
<!-- Generator: Adobe Illustrator 23.0.1, SVG Export Plug-In . SVG Version: 6.00 Build 0)  -->
<svg version="1.1" id="Capa_1" xmlns="http://www.w3.org/2000/svg" xmlns:xlink="http://www.w3.org/1999/xlink" x="0px" y="0px"
	 viewBox="0 0 479.8 479.8" style="enable-background:new 0 0 479.8 479.8;" xml:space="preserve">
<style type="text/css">
	.st0{fill:#FFFFFF;}
</style>
<g>
	<path class="st0" d="M478.4,116.6c-0.4-4.3-3.2-7.9-7.2-9.4c-4-1.5-8.5-0.5-11.6,2.6l-62,62L328.9,150l-21.8-68.7l62-62
		c3-3,4-7.5,2.6-11.6c-1.5-4-5.1-6.8-9.4-7.2C324.6-2.8,287.7,10.7,261,37.4c-36.5,36.5-46.2,89.9-29.1,135.4
		c-1.9,1.6-3.7,3.3-5.5,5.1l-207,195.3c-0.1,0.1-0.1,0.1-0.2,0.2c-24.3,24.3-24.3,64,0,88.3c24.3,24.3,63.7,24,88-0.3
		c0.1-0.1,0.2-0.2,0.3-0.3l193.6-208.6c1.8-1.8,3.4-3.6,4.9-5.5c45.5,17.2,98.9,7.5,135.5-29.1C468.2,191.2,481.7,154.3,478.4,116.6
		z M76,435.4c-9,9-23.5,9-32.5,0c-9-9-9-23.5,0-32.5c9-9,23.5-9,32.5,0C84.9,411.9,84.9,426.4,76,435.4z"/>
</g>
</svg>
