<?xml version="1.0" encoding="utf-8"?>
<!-- Generator: Adobe Illustrator 23.0.1, SVG Export Plug-In . SVG Version: 6.00 Build 0)  -->
<svg version="1.1" id="Layer_1" xmlns="http://www.w3.org/2000/svg" xmlns:xlink="http://www.w3.org/1999/xlink" x="0px" y="0px"
	 viewBox="0 0 512 512" style="enable-background:new 0 0 512 512;" xml:space="preserve">
<style type="text/css">
	.st0{fill:#FFFFFF;}
</style>
<path class="st0" d="M480,96H288c-10,0-19.6-4.8-25.6-12.8l-19.2-25.6C231.2,41.6,212,32,192,32H32C14.3,32,0,46.3,0,64v384
	c0,17.7,14.3,32,32,32h448c17.7,0,32-14.3,32-32V128C512,110.3,497.7,96,480,96z M416,320h-64v64h-64v-64h-64v-64h64v-64h64v64h64
	V320z"/>
</svg>
