<?xml version="1.0" encoding="utf-8"?>
<!-- Generator: Adobe Illustrator 23.0.1, SVG Export Plug-In . SVG Version: 6.00 Build 0)  -->
<svg version="1.1" id="Capa_1" xmlns="http://www.w3.org/2000/svg" xmlns:xlink="http://www.w3.org/1999/xlink" x="0px" y="0px"
	 viewBox="0 0 43.6 43.6" style="enable-background:new 0 0 43.6 43.6;" xml:space="preserve">
<style type="text/css">
	.st0{fill:#FFFFFF;}
</style>
<g>
	<path class="st0" d="M22.9,0.8C14.4,0.8,7.2,6,4,13.4l-2.1-0.9c-0.5-0.2-1.1-0.1-1.5,0.3c-0.4,0.4-0.5,1-0.3,1.5l3.4,7.9
		c0.1,0.3,0.4,0.6,0.7,0.7c0.3,0.1,0.7,0.1,1,0l7.9-3.4c0.5-0.2,0.8-0.7,0.8-1.3c0-0.5-0.3-1-0.8-1.2L10.5,16
		c2.2-4.8,6.9-8.2,12.4-8.2c7.5,0,13.7,6.3,13.7,14s-6.1,14-13.7,14c-3.3,0-6.4-1.2-8.8-3.3c-1.4-1.2-3.5-1.1-4.7,0.2
		c0,0,0,0-0.1,0.1c-1.4,1.4-1.3,3.8,0.2,5.1c3.6,3.1,8.3,5,13.4,5c11.4,0,20.7-9.4,20.7-21C43.6,10.2,34.3,0.8,22.9,0.8z"/>
</g>
</svg>
