<?xml version="1.0" encoding="utf-8"?>
<!-- Generator: Adobe Illustrator 23.0.1, SVG Export Plug-In . SVG Version: 6.00 Build 0)  -->
<svg version="1.1" id="Layer_1" xmlns="http://www.w3.org/2000/svg" xmlns:xlink="http://www.w3.org/1999/xlink" x="0px" y="0px"
	 viewBox="0 0 512 512" style="enable-background:new 0 0 512 512;" xml:space="preserve">
<style type="text/css">
	.st0{fill:none;}
	.st1{fill:#808080;}
	.st2{font-family:'BerlinSansFB-Reg';}
	.st3{font-size:500px;}
</style>
<rect x="20" y="-2" class="st0" width="512" height="512"/>
<text transform="matrix(1 0 0 1 -25 343.4971)" class="st1 st2 st3">L</text>
<g>
	<g>
		<path class="st1" d="M512.4,165.4c0,21-0.9,52.5-2.8,94.4c-1.9,41.9-2.8,73.3-2.8,94.1c0,64.3,1.4,113,4.2,146l0.2,3.2
			c0.2,1.6-2,2.7-6.6,3.2c-3.1,0.3-7.5,0.3-13.2,0c-6.8-0.5-10-0.7-9.5-0.7c-2.4,0-6,0.2-10.7,0.7c-4.7,0.5-8.3,0.7-10.7,0.7
			c-2.3,0-3.6-5.7-4-17c-0.4-11.3-1-17-1.8-17.2c-1,0.5-2.2,1.5-3.7,3.2C428.6,500,403,512.1,374,512.1c-32.9,0-59.9-12.5-81.1-37.6
			c-20-23.6-30-52.1-30-85.4c0-34.7,10.1-63.8,30.3-87.4c21.2-24.7,48.7-37.1,82.8-37.1c20.5,0,38.4,6,53.7,18.1
			c7,6,13.9,12.1,20.8,18.3c1.3-0.5,2-1.6,2-3.4v-79.1c0-5.4-0.2-13.5-0.7-24.4c-0.5-10.9-0.7-19.1-0.7-24.7c0-3.9,1.3-5.9,3.9-5.9
			c6,0,15-0.5,26.9-1.6c11.9-1.1,20.8-1.6,26.6-1.6C511.1,160.3,512.4,162,512.4,165.4z M451.4,387.6c0-19.5-6-36.7-18.1-51.5
			c-12.9-15.8-28.8-23.7-47.9-23.7c-20,0-36.5,7.8-49.6,23.4c-12.4,14.6-18.6,32.2-18.6,52.7c0,19.5,6.4,36.5,19.3,51
			c13.2,15.3,29.5,22.9,48.8,22.9c19.5,0,35.6-7.7,48.3-23.2C445.6,424.8,451.4,407.6,451.4,387.6z"/>
	</g>
</g>
</svg>
