<?xml version="1.0" encoding="utf-8"?>
<!-- Generator: Adobe Illustrator 23.0.1, SVG Export Plug-In . SVG Version: 6.00 Build 0)  -->
<svg version="1.1" id="Capa_1" xmlns="http://www.w3.org/2000/svg" xmlns:xlink="http://www.w3.org/1999/xlink" x="0px" y="0px"
	 viewBox="0 0 512 512" style="enable-background:new 0 0 512 512;" xml:space="preserve">
<g>
	<path d="M149.3,218.4L6.4,319.8c-7.6,5.4-8.5,16.3-1.9,22.8l110.2,110.2l56.9-85.3c4.6-6.9,13.9-8.7,20.8-4.2
		c6.9,4.6,8.8,13.9,4.2,20.8l-60.2,90.3l33.2,33.2c6.7,6.7,18,5.6,23.2-2.4l96-147.5L149.3,218.4z"/>
	<path d="M507.5,4.4c-5.9-5.9-15.3-5.9-21.2,0L289.7,200.9c-33.9-26.8-82.1-27.1-116.3-0.9l133,133c24.6-32.2,25.9-76.7,3.7-110.1
		L507.5,25.6C513.3,19.7,513.3,10.2,507.5,4.4z"/>
</g>
</svg>
