<?xml version="1.0" encoding="utf-8"?>
<!-- Generator: Adobe Illustrator 23.0.1, SVG Export Plug-In . SVG Version: 6.00 Build 0)  -->
<svg version="1.1" id="Capa_1" xmlns="http://www.w3.org/2000/svg" xmlns:xlink="http://www.w3.org/1999/xlink" x="0px" y="0px"
	 viewBox="0 0 369.8 369.8" style="enable-background:new 0 0 369.8 369.8;" xml:space="preserve">
<g>
	<g>
		<g>
			<path d="M320.8,140.4l-1.8-0.6l-6.9-16.4l0.7-1.7c20.8-47.2,19.4-48.6,15.9-52l-27.8-27.1c-1.1-1.1-3.1-1.9-4.8-1.9
				c-1.6,0-6.3,0-47.3,18.6l-1.6,0.7l-16.9-6.8l-0.7-1.7C210.4,3.8,208.5,3.8,203.7,3.8h-39.2c-4.8,0-7,0-24.8,47.8l-0.7,1.7
				l-16.8,6.9l-1.6-0.7c-27.8-11.7-44-17.6-48.2-17.6c-1.7,0-3.7,0.8-4.9,1.9L39.7,70.9c-3.5,3.5-5,4.9,16.9,51.1l0.8,1.7l-6.9,16.4
				l-1.7,0.7C0,159.7,0,161.6,0,166.5v38.4c0,4.9,0,7,49,24.5l1.8,0.6l6.9,16.3l-0.7,1.7c-20.8,47.2-19.5,48.5-15.9,52l27.7,27.1
				c1.2,1.1,3.2,1.9,4.9,1.9c1.6,0,6.3,0,47.3-18.6l1.6-0.8l16.9,6.8l0.7,1.7c19.3,47.7,21.3,47.7,26.1,47.7h39.2
				c4.9,0,7,0,24.9-47.9l0.7-1.7l16.9-6.8l1.6,0.7c27.7,11.7,43.9,17.7,48.1,17.7c1.7,0,3.7-0.7,4.9-1.9l27.8-27.2
				c3.5-3.5,5-4.9-17-51.1l-0.8-1.7l6.9-16.3l1.6-0.6c48.9-19,48.9-20.8,48.9-25.8v-38.4C369.8,159.9,369.8,157.9,320.8,140.4z
				 M184.9,247.2c-35,0-63.5-28-63.5-62.3c0-34.3,28.5-62.3,63.5-62.3c35,0,63.5,27.9,63.5,62.3
				C248.4,219.2,219.9,247.2,184.9,247.2z"/>
		</g>
	</g>
</g>
</svg>
